<svg xmlns="http://www.w3.org/2000/svg" viewBox="0 0 45.25 33.05"><defs><style>.cls-1{fill:none;stroke:#000;stroke-linecap:round;stroke-linejoin:round;stroke-width:0.85px;}</style></defs><g id="Layer_2" data-name="Layer 2"><g id="Layer_1-2" data-name="Layer 1"><path class="cls-1" d="M44.66,16.15a5.19,5.19,0,0,0-1.8-2.8A5,5,0,0,0,43.71,9a4.77,4.77,0,0,0-4.14-3.73,5.63,5.63,0,0,0-.15-1.07A4.58,4.58,0,0,0,34.11.54a4.19,4.19,0,0,0-3,3.31c-.88-2-2.69-3.27-4.39-2.85a3.64,3.64,0,0,0-2.45,3.17,5.09,5.09,0,0,0-4.38-2.11c-2.31,0-4.23,1.21-4.71,2.84a5.57,5.57,0,0,0-3.64-1.26c-2.67,0-4.83,1.62-4.83,3.63,0,.07,0,.14,0,.21-1.63.62-2.52,2.7-2.13,5C2.25,12.68.43,14.19.43,16s1.84,3.36,4.22,3.59a1.79,1.79,0,0,0,0,.23c-2,.46-3.41,1.82-3.41,3.46,0,2,2.16,3.63,4.84,3.63a6.17,6.17,0,0,0,1.63-.22,3.56,3.56,0,0,0,.11.86c.65,2.59,3.86,4,7.17,3.18a7.49,7.49,0,0,0,2.92-1.45c.71,2.52,3.87,3.89,7.14,3.07a6.23,6.23,0,0,0,4.87-4.64,7,7,0,0,0,4.71.38c3.31-.83,5.46-3.61,4.81-6.2,0-.07-.05-.14-.07-.21a3.81,3.81,0,0,0,2.36.17C44,21.31,45.31,18.74,44.66,16.15Z"/></g></g></svg>