<svg xmlns="http://www.w3.org/2000/svg" viewBox="0 0 46.39 34.18"><defs><style>.cls-1{fill:none;stroke:#000;stroke-linecap:round;stroke-linejoin:round;stroke-width:1.98px;}</style></defs><g id="Layer_2" data-name="Layer 2"><g id="Layer_1-2" data-name="Layer 1"><path class="cls-1" d="M45.23,16.72a5.15,5.15,0,0,0-1.8-2.8,5,5,0,0,0,.85-4.36,4.74,4.74,0,0,0-4.14-3.73A4.86,4.86,0,0,0,40,4.76c-.65-2.59-3-4.23-5.31-3.65a4.21,4.21,0,0,0-3,3.3c-.87-2-2.68-3.27-4.38-2.84a3.62,3.62,0,0,0-2.46,3.17,5.08,5.08,0,0,0-4.37-2.12c-2.31,0-4.23,1.22-4.72,2.85A5.52,5.52,0,0,0,12.13,4.2c-2.67,0-4.84,1.63-4.84,3.64a1.2,1.2,0,0,0,0,.2c-1.63.62-2.52,2.7-2.13,5C2.82,13.25,1,14.75,1,16.6S2.84,20,5.21,20.19c0,.07,0,.15,0,.22-2,.47-3.41,1.83-3.41,3.46,0,2,2.16,3.64,4.83,3.64a6.25,6.25,0,0,0,1.64-.23,3.24,3.24,0,0,0,.11.87c.65,2.59,3.86,4,7.17,3.18a7.51,7.51,0,0,0,2.92-1.46c.71,2.53,3.87,3.9,7.13,3.08,2.65-.67,4.55-2.58,4.87-4.64a7.05,7.05,0,0,0,4.72.38c3.31-.84,5.46-3.61,4.8-6.2a1.66,1.66,0,0,0-.06-.21,3.88,3.88,0,0,0,2.36.17C44.56,21.88,45.88,19.31,45.23,16.72Z"/></g></g></svg>